<?xml version="1.0" standalone="no"?>
<!DOCTYPE svg PUBLIC "-//W3C//DTD SVG 1.1//EN"
"http://www.w3.org/Graphics/SVG/1.1/DTD/svg11.dtd">

<svg width="486" height="170" view_box="0 0 486 170"
xmlns="http://www.w3.org/2000/svg"
xmlns:link="http://www.w3.org/1999/xlink">\n\n<desc>Généré par Mocodo 2.3.7 le Sat, 28 Mar 2020 02:41:02</desc>

<rect id="frame" x="0" y="0" width="486" height="170" fill="#ffffff" stroke="none" stroke-width="0"/>

<!-- Association has -->
<line x1="257" y1="85" x2="363" y2="85" stroke="#d6604d" stroke-width="2"/>
<text x="318" y="102.0" fill="#4d4d4d" font-family="Verdana" font-size="12">1,N</text>
<line x1="445" y1="85" x2="363" y2="85" stroke="#d6604d" stroke-width="2"/>
<text x="386" y="102.0" fill="#4d4d4d" font-family="Verdana" font-size="12">1,N</text>
<g id="association-has">
	<path d="M 367 60 a 14 14 90 0 1 14 14 V 85 h -36 V 74 a 14 14 90 0 1 14 -14" fill="#f4a582" stroke="#f4a582" stroke-width="0"/>
	<path d="M 381 85.0 v 11 a 14 14 90 0 1 -14 14 H 359 a 14 14 90 0 1 -14 -14 V 85.0 H 36" fill="#fddbc7" stroke="#fddbc7" stroke-width="0"/>
	<rect x="345" y="60" width="36" height="50" fill="none" rx="14" stroke="#d6604d" stroke-width="2"/>
	<line x1="345" y1="85" x2="381" y2="85" stroke="#d6604d" stroke-width="1"/>
	<text x="352" y="77.7" fill="#000000" font-family="Verdana" font-size="12">has</text>
</g>

<!-- Association has2 -->
<line x1="257" y1="85" x2="151" y2="85" stroke="#d6604d" stroke-width="2"/>
<text x="174" y="102.0" fill="#4d4d4d" font-family="Verdana" font-size="12">1,N</text>
<line x1="55" y1="85" x2="151" y2="85" stroke="#d6604d" stroke-width="2"/>
<text x="106" y="102.0" fill="#4d4d4d" font-family="Verdana" font-size="12">1,N</text>
<g id="association-has2">
	<path d="M 155 60 a 14 14 90 0 1 14 14 V 85 h -36 V 74 a 14 14 90 0 1 14 -14" fill="#f4a582" stroke="#f4a582" stroke-width="0"/>
	<path d="M 169 85.0 v 11 a 14 14 90 0 1 -14 14 H 147 a 14 14 90 0 1 -14 -14 V 85.0 H 36" fill="#fddbc7" stroke="#fddbc7" stroke-width="0"/>
	<rect x="133" y="60" width="36" height="50" fill="none" rx="14" stroke="#d6604d" stroke-width="2"/>
	<line x1="133" y1="85" x2="169" y2="85" stroke="#d6604d" stroke-width="1"/>
	<text x="140" y="77.7" fill="#000000" font-family="Verdana" font-size="12">has</text>
</g>

<!-- Entity SCOPE -->
<g id="entity-SCOPE">
	<g id="frame-SCOPE">
		<rect x="9" y="9" width="92" height="25" fill="#bababa" stroke="#bababa" stroke-width="0"/>
		<rect x="9" y="34.0" width="92" height="127" fill="#e0e0e0" stroke="#e0e0e0" stroke-width="0"/>
		<rect x="9" y="9" width="92" height="152" fill="none" stroke="#878787" stroke-width="2"/>
		<line x1="9" y1="34" x2="101" y2="34" stroke="#878787" stroke-width="1"/>
	</g>
	<text x="34" y="26.7" fill="#000000" font-family="Verdana" font-size="12">SCOPE</text>
	<text x="14" y="51.7" fill="#000000" font-family="Verdana" font-size="12">scope_id</text>
	<line x1="14" y1="54" x2="68" y2="54" stroke="#000000" stroke-width="1"/>
	<text x="14" y="68.7" fill="#000000" font-family="Verdana" font-size="12">brand</text>
	<text x="14" y="85.8" fill="#000000" font-family="Verdana" font-size="12">model</text>
	<text x="14" y="102.8" fill="#000000" font-family="Verdana" font-size="12">magnification</text>
	<text x="14" y="119.8" fill="#000000" font-family="Verdana" font-size="12">lengthUnit</text>
	<text x="14" y="136.8" fill="#000000" font-family="Verdana" font-size="12">lengthClic</text>
	<text x="14" y="153.8" fill="#000000" font-family="Verdana" font-size="12">valueClic</text>
</g>

<!-- Entity USER -->
<g id="entity-USER">
	<g id="frame-USER">
		<rect x="201" y="26" width="112" height="25" fill="#bababa" stroke="#bababa" stroke-width="0"/>
		<rect x="201" y="51.0" width="112" height="93" fill="#e0e0e0" stroke="#e0e0e0" stroke-width="0"/>
		<rect x="201" y="26" width="112" height="118" fill="none" stroke="#878787" stroke-width="2"/>
		<line x1="201" y1="51" x2="313" y2="51" stroke="#878787" stroke-width="1"/>
	</g>
	<text x="240" y="43.7" fill="#000000" font-family="Verdana" font-size="12">USER</text>
	<text x="206" y="68.7" fill="#000000" font-family="Verdana" font-size="12">user_id</text>
	<line x1="206" y1="71" x2="252" y2="71" stroke="#000000" stroke-width="1"/>
	<text x="206" y="85.8" fill="#000000" font-family="Verdana" font-size="12">firstName</text>
	<text x="206" y="102.8" fill="#000000" font-family="Verdana" font-size="12">lastName</text>
	<text x="206" y="119.8" fill="#000000" font-family="Verdana" font-size="12">email</text>
	<text x="206" y="136.8" fill="#000000" font-family="Verdana" font-size="12">hashedPassword</text>
</g>

<!-- Entity BULLET -->
<g id="entity-BULLET">
	<g id="frame-BULLET">
		<rect x="413" y="9" width="64" height="25" fill="#bababa" stroke="#bababa" stroke-width="0"/>
		<rect x="413" y="34.0" width="64" height="127" fill="#e0e0e0" stroke="#e0e0e0" stroke-width="0"/>
		<rect x="413" y="9" width="64" height="152" fill="none" stroke="#878787" stroke-width="2"/>
		<line x1="413" y1="34" x2="477" y2="34" stroke="#878787" stroke-width="1"/>
	</g>
	<text x="422" y="26.7" fill="#000000" font-family="Verdana" font-size="12">BULLET</text>
	<text x="418" y="51.7" fill="#000000" font-family="Verdana" font-size="12">bullet_id</text>
	<line x1="418" y1="54" x2="471" y2="54" stroke="#000000" stroke-width="1"/>
	<text x="418" y="68.7" fill="#000000" font-family="Verdana" font-size="12">brand</text>
	<text x="418" y="85.8" fill="#000000" font-family="Verdana" font-size="12">model</text>
	<text x="418" y="102.8" fill="#000000" font-family="Verdana" font-size="12">caliber</text>
	<text x="418" y="119.8" fill="#000000" font-family="Verdana" font-size="12">speed</text>
	<text x="418" y="136.8" fill="#000000" font-family="Verdana" font-size="12">dro</text>
	<text x="418" y="153.8" fill="#000000" font-family="Verdana" font-size="12">weight</text>
</g>
</svg>